<svg width="16" height="16" viewBox="0 0 16 16" fill="none" xmlns="http://www.w3.org/2000/svg">
    <path
        d="M7.99984 9.99999C8.55539 9.99999 9.02761 9.80554 9.4165 9.41666C9.80539 9.02777 9.99984 8.55554 9.99984 7.99999C9.99984 7.44443 9.80539 6.97221 9.4165 6.58332C9.02761 6.19443 8.55539 5.99999 7.99984 5.99999C7.44428 5.99999 6.97206 6.19443 6.58317 6.58332C6.19428 6.97221 5.99984 7.44443 5.99984 7.99999C5.99984 8.55554 6.19428 9.02777 6.58317 9.41666C6.97206 9.80554 7.44428 9.99999 7.99984 9.99999ZM7.99984 11.3333C7.07761 11.3333 6.2915 11.0083 5.6415 10.3583C4.9915 9.70832 4.6665 8.92221 4.6665 7.99999C4.6665 7.07777 4.9915 6.29166 5.6415 5.64166C6.2915 4.99166 7.07761 4.66666 7.99984 4.66666C8.92206 4.66666 9.70817 4.99166 10.3582 5.64166C11.0082 6.29166 11.3332 7.07777 11.3332 7.99999C11.3332 8.92221 11.0082 9.70832 10.3582 10.3583C9.70817 11.0083 8.92206 11.3333 7.99984 11.3333ZM3.33317 8.66666H0.666504V7.33332H3.33317V8.66666ZM15.3332 8.66666H12.6665V7.33332H15.3332V8.66666ZM7.33317 3.33332V0.666656H8.6665V3.33332H7.33317ZM7.33317 15.3333V12.6667H8.6665V15.3333H7.33317ZM4.2665 5.16666L2.58317 3.54999L3.53317 2.56666L5.13317 4.23332L4.2665 5.16666ZM12.4665 13.4333L10.8498 11.75L11.7332 10.8333L13.4165 12.45L12.4665 13.4333ZM10.8332 4.26666L12.4498 2.58332L13.4332 3.53332L11.7665 5.13332L10.8332 4.26666ZM2.5665 12.4667L4.24984 10.85L5.1665 11.7333L3.54984 13.4167L2.5665 12.4667Z"
        fill="#4F378A"/>
</svg>
